# xmcd
# 
# Track frame offsets:
#     150
#     32892
#     47512
# 
# Disc length: 961
# 
# Revision: 3
# Processed by: cddbd v1.5.2PL0 Copyright (c) Steve Scherf et al.
# Submitted via: BonkEnc v1.0.6
# 
DISCID=1d03bf03
DTITLE=Caetano Veloso - Sozinho Remix
DYEAR=1999
DGENRE=MPB
TTITLE0=Sozinho (Hitmakers Classic Mix)
TTITLE1=Sozinho (Hitmakers Classic Radio Edit)
TTITLE2=Sozinho (Caêdrum 'n' Bass)
EXTD=
EXTT0=
EXTT1=
EXTT2=
PLAYORDER=
